<svg xmlns="http://www.w3.org/2000/svg" xmlns:xlink="http://www.w3.org/1999/xlink" width="500" zoomAndPan="magnify" viewBox="0 0 375 374.999991" height="500" preserveAspectRatio="xMidYMid meet" version="1.0"><path fill="#ca9321" d="M 187.5 375 C 83.910156 375 0 290.507812 0 187.5 C 0 84.492188 83.910156 0 187.5 0 C 291.089844 0 375 83.910156 375 187.5 C 375 291.089844 290.507812 375 187.5 375 Z M 187.5 11.574219 C 90.277344 11.574219 11.574219 90.277344 11.574219 187.5 C 11.574219 284.722656 90.277344 363.425781 187.5 363.425781 C 284.722656 363.425781 363.425781 284.722656 363.425781 187.5 C 363.425781 90.277344 284.144531 11.574219 187.5 11.574219 Z M 187.5 11.574219 " fill-opacity="1" fill-rule="nonzero"/><path fill="#57b1bc" d="M 78.09375 296.878906 C 65.957031 284.742188 65.957031 265.101562 78.09375 252.960938 L 157.214844 173.839844 C 159.03125 172.027344 161.972656 172.027344 163.785156 173.839844 L 201.132812 211.1875 C 202.945312 213 202.945312 215.941406 201.132812 217.757812 L 122.011719 296.878906 C 109.875 309.015625 90.230469 309.019531 78.09375 296.878906 Z M 160.5 183.695312 L 84.664062 259.535156 C 76.160156 268.035156 76.160156 281.804688 84.664062 290.308594 C 93.167969 298.8125 106.933594 298.8125 115.4375 290.308594 L 191.277344 214.472656 Z M 160.5 183.695312 " fill-opacity="1" fill-rule="nonzero"/><path fill="#57b1bc" d="M 179.003906 233.3125 L 141.660156 195.96875 C 139.84375 194.152344 139.84375 191.210938 141.660156 189.398438 C 143.472656 187.582031 146.414062 187.582031 148.230469 189.398438 L 185.574219 226.742188 C 187.390625 228.558594 187.390625 231.5 185.574219 233.3125 C 183.761719 235.128906 180.820312 235.128906 179.003906 233.3125 Z M 179.003906 233.3125 " fill-opacity="1" fill-rule="nonzero"/><path fill="#57b1bc" d="M 162.578125 249.742188 L 125.230469 212.394531 C 123.414062 210.582031 123.414062 207.640625 125.230469 205.824219 C 127.046875 204.011719 129.988281 204.011719 131.800781 205.824219 L 169.148438 243.171875 C 170.960938 244.984375 170.960938 247.925781 169.148438 249.742188 C 167.332031 251.558594 164.390625 251.558594 162.578125 249.742188 Z M 162.578125 249.742188 " fill-opacity="1" fill-rule="nonzero"/><path fill="#57b1bc" d="M 186.261719 209.457031 L 165.515625 188.710938 C 163.699219 186.898438 163.699219 183.953125 165.515625 182.140625 L 243.351562 104.300781 L 247.15625 92.890625 C 247.464844 91.960938 248.0625 91.152344 248.863281 90.582031 L 277.910156 69.832031 C 279.757812 68.511719 282.289062 68.722656 283.898438 70.328125 L 304.644531 91.078125 C 306.25 92.683594 306.460938 95.214844 305.140625 97.0625 L 284.394531 126.109375 C 283.820312 126.910156 283.011719 127.507812 282.082031 127.816406 L 270.671875 131.621094 L 192.832031 209.457031 C 191.023438 211.269531 188.082031 211.277344 186.261719 209.457031 Z M 175.371094 185.425781 L 189.546875 199.601562 L 264.875 124.273438 C 265.386719 123.761719 266.007812 123.378906 266.691406 123.152344 L 277.707031 119.480469 L 295.289062 94.863281 L 280.109375 79.683594 L 255.492188 97.265625 L 251.824219 108.28125 C 251.59375 108.964844 251.210938 109.585938 250.699219 110.097656 Z M 175.371094 185.425781 " fill-opacity="1" fill-rule="nonzero"/><path fill="#57b1bc" d="M 237.722656 294.25 C 226.617188 283.144531 223.089844 266.355469 228.59375 251.792969 L 186.261719 209.460938 C 184.445312 207.644531 184.445312 204.703125 186.261719 202.886719 C 188.074219 201.074219 191.015625 201.074219 192.832031 202.886719 L 236.808594 246.863281 C 238.511719 248.589844 238.976562 251.203125 237.988281 253.390625 C 232.796875 264.929688 235.328125 278.714844 244.292969 287.679688 C 251.824219 295.207031 262.617188 298.183594 272.722656 295.925781 L 258.546875 281.753906 C 256.734375 279.9375 256.734375 276.996094 258.546875 275.179688 L 275.214844 258.515625 C 277.027344 256.703125 279.96875 256.703125 281.785156 258.515625 L 295.957031 272.691406 C 298.214844 262.585938 295.238281 251.789062 287.710938 244.261719 C 278.746094 235.296875 264.960938 232.761719 253.414062 237.957031 C 251.234375 238.945312 248.621094 238.476562 246.917969 236.796875 L 202.921875 192.800781 C 201.105469 190.984375 201.105469 188.042969 202.921875 186.226562 C 204.734375 184.414062 207.675781 184.414062 209.492188 186.226562 L 251.828125 228.5625 C 266.394531 223.054688 283.175781 226.582031 294.285156 237.691406 C 306.242188 249.648438 309.378906 267.9375 302.097656 283.207031 C 300.71875 286.089844 296.890625 286.765625 294.617188 284.492188 L 278.5 268.375 L 268.40625 278.46875 L 284.523438 294.585938 C 286.785156 296.847656 286.136719 300.679688 283.238281 302.0625 C 267.90625 309.382812 249.632812 306.160156 237.722656 294.25 Z M 237.722656 294.25 " fill-opacity="1" fill-rule="nonzero"/><path fill="#57b1bc" d="M 165.511719 188.710938 L 123.179688 146.375 C 108.609375 151.878906 91.828125 148.355469 80.722656 137.25 C 68.761719 125.289062 65.621094 106.996094 72.910156 91.734375 C 74.289062 88.84375 78.121094 88.179688 80.390625 90.449219 L 96.507812 106.566406 L 106.601562 96.472656 L 90.480469 80.355469 C 88.21875 78.09375 88.871094 74.257812 91.765625 72.878906 C 107.035156 65.59375 125.324219 68.730469 137.285156 80.691406 C 148.390625 91.796875 151.917969 108.585938 146.410156 123.144531 L 188.746094 165.480469 C 190.558594 167.292969 190.558594 170.238281 188.746094 172.050781 C 186.929688 173.867188 183.988281 173.867188 182.171875 172.050781 L 138.195312 128.078125 C 136.492188 126.351562 136.027344 123.734375 137.019531 121.550781 C 142.210938 110.011719 139.679688 96.226562 130.710938 87.261719 C 123.183594 79.734375 112.390625 76.761719 102.28125 79.015625 L 116.457031 93.1875 C 118.269531 95.003906 118.269531 97.945312 116.457031 99.761719 L 99.792969 116.425781 C 98.921875 117.296875 97.738281 117.785156 96.507812 117.785156 C 95.273438 117.785156 94.09375 117.296875 93.21875 116.425781 L 79.046875 102.25 C 76.789062 112.351562 79.761719 123.148438 87.292969 130.679688 C 96.257812 139.644531 110.042969 142.175781 121.59375 136.980469 C 123.769531 135.996094 126.382812 136.460938 128.085938 138.140625 L 172.085938 182.140625 C 173.898438 183.953125 173.898438 186.898438 172.085938 188.710938 C 170.269531 190.527344 167.328125 190.527344 165.511719 188.710938 Z M 165.511719 188.710938 " fill-opacity="1" fill-rule="nonzero"/></svg>