<svg xmlns="http://www.w3.org/2000/svg" xmlns:xlink="http://www.w3.org/1999/xlink" width="500" zoomAndPan="magnify" viewBox="0 0 375 374.999991" height="500" preserveAspectRatio="xMidYMid meet" version="1.0"><defs><clipPath id="70487cb92d"><path d="M 96.554688 86.449219 L 278.804688 86.449219 L 278.804688 288.199219 L 96.554688 288.199219 Z M 96.554688 86.449219 " clip-rule="nonzero"/></clipPath></defs><path fill="#ca9321" d="M 187.5 375 C 83.910156 375 0 290.507812 0 187.5 C 0 84.492188 83.910156 0 187.5 0 C 291.089844 0 375 83.910156 375 187.5 C 375 291.089844 290.507812 375 187.5 375 Z M 187.5 11.574219 C 90.277344 11.574219 11.574219 90.277344 11.574219 187.5 C 11.574219 284.722656 90.277344 363.425781 187.5 363.425781 C 284.722656 363.425781 363.425781 284.722656 363.425781 187.5 C 363.425781 90.277344 284.144531 11.574219 187.5 11.574219 Z M 187.5 11.574219 " fill-opacity="1" fill-rule="nonzero"/><g clip-path="url(#70487cb92d)"><path fill="#57b1bc" d="M 157.183594 86.449219 L 157.183594 106.660156 L 116.765625 106.660156 L 116.757812 207.703125 L 258.21875 207.703125 L 258.230469 106.660156 L 217.8125 106.660156 L 217.8125 86.449219 L 268.332031 86.449219 C 268.996094 86.449219 269.65625 86.515625 270.304688 86.644531 C 270.957031 86.773438 271.585938 86.964844 272.199219 87.21875 C 272.8125 87.472656 273.394531 87.785156 273.949219 88.152344 C 274.5 88.519531 275.007812 88.941406 275.480469 89.410156 C 275.949219 89.878906 276.367188 90.386719 276.734375 90.941406 C 277.105469 91.492188 277.414062 92.074219 277.667969 92.6875 C 277.921875 93.300781 278.113281 93.933594 278.242188 94.582031 C 278.375 95.234375 278.4375 95.890625 278.4375 96.554688 L 278.4375 278.433594 C 278.4375 279.097656 278.375 279.753906 278.242188 280.40625 C 278.113281 281.058594 277.921875 281.6875 277.667969 282.300781 C 277.414062 282.914062 277.105469 283.496094 276.734375 284.046875 C 276.367188 284.601562 275.949219 285.109375 275.480469 285.578125 C 275.007812 286.046875 274.5 286.46875 273.949219 286.835938 C 273.394531 287.203125 272.8125 287.515625 272.199219 287.769531 C 271.585938 288.023438 270.957031 288.214844 270.304688 288.34375 C 269.65625 288.472656 268.996094 288.539062 268.332031 288.539062 L 106.660156 288.539062 C 106 288.539062 105.339844 288.472656 104.691406 288.34375 C 104.039062 288.214844 103.40625 288.023438 102.796875 287.769531 C 102.183594 287.515625 101.601562 287.203125 101.046875 286.835938 C 100.496094 286.46875 99.984375 286.046875 99.515625 285.578125 C 99.046875 285.109375 98.628906 284.601562 98.261719 284.046875 C 97.890625 283.496094 97.582031 282.914062 97.328125 282.300781 C 97.074219 281.6875 96.882812 281.058594 96.75 280.40625 C 96.621094 279.753906 96.558594 279.097656 96.558594 278.433594 L 96.558594 96.554688 C 96.558594 95.890625 96.621094 95.234375 96.75 94.582031 C 96.882812 93.933594 97.074219 93.300781 97.328125 92.6875 C 97.582031 92.074219 97.890625 91.492188 98.261719 90.941406 C 98.628906 90.386719 99.046875 89.878906 99.515625 89.410156 C 99.984375 88.941406 100.496094 88.519531 101.046875 88.152344 C 101.601562 87.785156 102.183594 87.472656 102.796875 87.21875 C 103.40625 86.964844 104.039062 86.773438 104.691406 86.644531 C 105.339844 86.515625 106 86.449219 106.660156 86.449219 Z M 258.21875 227.914062 L 116.757812 227.914062 L 116.765625 268.332031 L 258.230469 268.332031 Z M 238.019531 238.015625 L 238.019531 258.226562 L 217.8125 258.226562 L 217.8125 238.015625 Z M 197.601562 86.449219 L 197.601562 136.972656 L 227.914062 136.972656 L 187.496094 177.390625 L 147.078125 136.972656 L 177.394531 136.972656 L 177.394531 86.449219 Z M 197.601562 86.449219 " fill-opacity="1" fill-rule="nonzero"/></g></svg>