<svg xmlns="http://www.w3.org/2000/svg" xmlns:xlink="http://www.w3.org/1999/xlink" width="500" zoomAndPan="magnify" viewBox="0 0 375 374.999991" height="500" preserveAspectRatio="xMidYMid meet" version="1.0"><defs><clipPath id="413601aa8a"><path d="M 62.140625 96 L 312.640625 96 L 312.640625 318 L 62.140625 318 Z M 62.140625 96 " clip-rule="nonzero"/></clipPath></defs><path fill="#ca9321" d="M 187.5 375 C 83.910156 375 0 290.507812 0 187.5 C 0 84.492188 83.910156 0 187.5 0 C 291.089844 0 375 83.910156 375 187.5 C 375 291.089844 290.507812 375 187.5 375 Z M 187.5 11.574219 C 90.277344 11.574219 11.574219 90.277344 11.574219 187.5 C 11.574219 284.722656 90.277344 363.425781 187.5 363.425781 C 284.722656 363.425781 363.425781 284.722656 363.425781 187.5 C 363.425781 90.277344 284.144531 11.574219 187.5 11.574219 Z M 187.5 11.574219 " fill-opacity="1" fill-rule="nonzero"/><path fill="#57b1bc" d="M 257.015625 176.214844 C 249.644531 176.015625 242.472656 176.214844 235.105469 176.214844 L 141.082031 176.214844 C 132.714844 176.214844 124.550781 176.214844 116.183594 176.214844 C 105.027344 176.015625 95.664062 185.179688 95.464844 196.332031 C 95.265625 205.296875 101.242188 213.464844 109.808594 216.054688 C 112.996094 216.851562 116.382812 217.050781 119.570312 216.851562 L 256.816406 216.851562 C 256.816406 216.851562 257.015625 216.851562 257.015625 216.851562 C 268.171875 216.851562 277.332031 207.6875 277.332031 196.53125 C 277.332031 185.378906 268.171875 176.214844 257.015625 176.214844 Z M 272.15625 198.125 C 271.359375 205.894531 264.785156 211.871094 257.015625 212.070312 C 257.015625 212.070312 256.816406 212.070312 256.816406 212.070312 L 118.375 212.070312 C 114.390625 212.46875 110.40625 211.472656 107.019531 209.480469 C 100.046875 204.5 98.253906 194.9375 103.234375 187.769531 C 104.429688 185.976562 106.222656 184.382812 108.015625 183.1875 C 111.203125 181.59375 114.988281 180.796875 118.574219 181.195312 L 252.035156 181.195312 C 254.027344 181.195312 256.21875 180.996094 258.210938 181.195312 C 266.777344 182.191406 272.953125 189.761719 272.15625 198.125 Z M 272.15625 198.125 " fill-opacity="1" fill-rule="nonzero"/><path fill="#57b1bc" d="M 252.832031 198.921875 C 255.023438 196.132812 255.222656 192.347656 253.230469 189.164062 C 253.03125 188.765625 252.832031 188.566406 252.632812 188.367188 C 251.636719 187.371094 250.441406 186.375 249.046875 185.976562 C 247.453125 185.378906 245.859375 185.378906 244.265625 185.777344 C 242.671875 186.175781 241.277344 187.171875 240.082031 188.367188 C 238.886719 189.761719 238.289062 191.351562 238.089844 193.34375 C 237.890625 196.730469 239.683594 199.917969 242.671875 201.3125 C 244.265625 202.109375 246.058594 202.308594 247.851562 202.109375 C 248.050781 202.109375 248.449219 201.910156 248.648438 201.910156 L 251.238281 205.695312 L 251.835938 206.492188 C 252.234375 207.089844 252.632812 207.488281 253.429688 207.6875 C 254.027344 207.886719 254.824219 207.886719 255.421875 207.488281 C 256.019531 207.089844 256.417969 206.691406 256.617188 206.09375 C 256.816406 205.496094 256.816406 204.699219 256.417969 204.101562 Z M 249.046875 195.933594 C 248.847656 196.132812 248.648438 196.332031 249.046875 195.933594 Z M 246.855469 196.929688 C 246.65625 196.929688 246.65625 196.929688 246.855469 196.929688 C 246.65625 196.929688 246.65625 196.929688 246.855469 196.929688 L 245.660156 196.929688 L 245.261719 196.730469 C 245.261719 196.730469 245.0625 196.53125 245.0625 196.730469 C 245.0625 196.730469 244.863281 196.730469 244.863281 196.53125 L 244.464844 196.332031 C 244.066406 195.933594 244.066406 195.933594 243.867188 195.734375 C 243.867188 195.535156 243.667969 195.535156 243.667969 195.335938 C 243.667969 195.335938 243.46875 195.136719 243.46875 195.136719 C 243.46875 194.9375 243.269531 194.738281 243.269531 194.339844 C 243.269531 194.339844 243.269531 194.140625 243.269531 194.140625 C 243.269531 193.941406 243.269531 193.742188 243.269531 193.542969 C 243.269531 193.542969 243.269531 193.34375 243.269531 193.34375 C 243.269531 193.144531 243.269531 192.945312 243.46875 192.746094 C 243.46875 192.546875 243.667969 192.546875 243.667969 192.347656 L 243.867188 191.949219 C 243.46875 192.347656 243.867188 191.949219 243.867188 191.75 C 243.867188 191.550781 244.066406 191.550781 244.265625 191.351562 L 244.464844 191.152344 C 244.664062 190.953125 244.863281 190.953125 245.0625 190.753906 C 245.261719 190.753906 245.261719 190.753906 245.460938 190.554688 L 245.859375 190.554688 C 246.058594 190.554688 246.257812 190.554688 246.457031 190.554688 L 246.855469 190.554688 L 247.253906 190.753906 C 247.652344 190.753906 247.851562 190.953125 248.050781 191.152344 L 248.25 191.351562 C 248.449219 191.550781 248.449219 191.550781 248.648438 191.75 C 248.847656 191.949219 248.847656 192.148438 249.046875 192.347656 C 249.046875 192.546875 249.246094 192.546875 249.246094 192.746094 C 249.246094 192.945312 249.246094 193.542969 249.445312 193.542969 C 249.445312 193.542969 249.445312 193.742188 249.445312 193.742188 C 249.445312 193.742188 249.445312 193.742188 249.445312 193.941406 C 249.445312 193.941406 249.445312 194.140625 249.445312 194.140625 C 249.445312 194.140625 249.445312 194.140625 249.445312 194.339844 L 249.246094 194.738281 L 249.246094 194.9375 C 249.046875 195.335938 249.046875 195.335938 248.847656 195.535156 C 248.847656 195.535156 248.648438 195.734375 248.648438 195.734375 L 248.449219 195.933594 C 248.449219 195.933594 248.449219 195.933594 248.25 196.132812 C 248.25 196.132812 248.050781 196.132812 248.050781 196.132812 L 247.652344 196.332031 C 247.652344 196.332031 247.652344 196.332031 247.453125 196.332031 C 247.453125 196.332031 247.253906 196.332031 247.253906 196.332031 C 247.453125 196.929688 247.253906 196.929688 246.855469 196.929688 Z M 246.855469 196.929688 " fill-opacity="1" fill-rule="nonzero"/><path fill="#57b1bc" d="M 140.484375 189.5625 C 140.285156 189.761719 139.886719 190.160156 139.886719 190.554688 C 139.6875 190.953125 139.488281 191.351562 139.488281 191.949219 L 138.09375 196.332031 L 137.097656 192.347656 C 136.898438 191.550781 136.699219 190.953125 136.5 190.753906 C 136.300781 190.355469 135.902344 189.761719 135.503906 189.5625 C 134.308594 188.566406 132.714844 188.566406 131.519531 189.5625 C 131.121094 189.960938 130.722656 190.355469 130.523438 190.753906 C 130.324219 191.152344 130.125 191.550781 129.925781 192.546875 L 128.929688 196.332031 L 127.734375 191.949219 C 127.535156 191.351562 127.335938 190.554688 126.9375 189.960938 C 126.539062 189.164062 125.542969 188.765625 124.75 188.964844 C 123.953125 188.964844 123.355469 189.164062 122.757812 189.761719 C 122.160156 190.160156 121.960938 190.953125 121.960938 191.550781 C 121.960938 192.148438 122.160156 192.945312 122.359375 193.542969 L 125.347656 202.109375 L 125.742188 203.105469 C 125.941406 203.503906 126.140625 203.902344 126.339844 204.300781 C 126.539062 204.699219 126.9375 205.097656 127.335938 205.296875 C 127.734375 205.496094 128.332031 205.695312 128.929688 205.695312 C 129.925781 205.894531 131.121094 205.296875 131.71875 204.5 C 132.117188 203.703125 132.515625 202.90625 132.714844 202.109375 L 133.710938 198.722656 L 134.707031 202.109375 C 134.90625 202.707031 135.105469 203.304688 135.304688 203.703125 C 135.503906 204.300781 135.902344 204.699219 136.300781 205.097656 C 137.496094 205.894531 139.089844 205.894531 140.285156 205.097656 C 140.683594 204.699219 141.082031 204.300781 141.28125 203.902344 C 141.480469 203.503906 141.679688 203.105469 141.878906 202.308594 L 144.867188 193.742188 C 145.066406 193.144531 145.265625 192.347656 145.265625 191.75 C 145.265625 190.953125 144.867188 190.355469 144.269531 189.761719 C 143.273438 188.566406 141.679688 188.566406 140.484375 189.5625 Z M 140.484375 189.5625 " fill-opacity="1" fill-rule="nonzero"/><path fill="#57b1bc" d="M 166.179688 189.5625 C 165.78125 189.761719 165.582031 190.160156 165.382812 190.753906 C 165.382812 190.953125 165.183594 191.550781 164.984375 192.148438 L 163.589844 196.53125 L 162.597656 192.546875 C 162.398438 191.949219 162.199219 191.351562 162 190.953125 C 161.800781 190.554688 161.402344 189.960938 161.003906 189.761719 C 159.808594 188.964844 158.214844 188.964844 157.019531 189.761719 C 156.621094 190.15625 156.222656 190.554688 156.023438 190.953125 C 156.023438 191.351562 155.625 191.75 155.425781 192.746094 L 154.429688 196.53125 L 153.234375 192.148438 C 153.035156 191.550781 152.835938 190.753906 152.4375 190.160156 C 152.039062 189.363281 151.042969 188.964844 150.246094 189.164062 C 149.449219 189.164062 148.851562 189.363281 148.253906 189.960938 C 147.855469 190.160156 147.65625 190.753906 147.65625 191.351562 C 147.65625 191.949219 147.855469 192.746094 148.054688 193.34375 L 151.042969 201.910156 L 151.441406 202.90625 C 151.640625 203.304688 151.839844 203.703125 152.039062 204.101562 C 152.636719 205.097656 153.632812 205.496094 154.628906 205.496094 C 155.625 205.496094 156.621094 205.097656 157.21875 204.300781 C 157.617188 203.503906 158.015625 202.707031 158.214844 201.910156 L 159.210938 198.523438 L 160.207031 201.910156 C 160.40625 202.507812 160.605469 203.105469 160.804688 203.503906 C 161.003906 204.101562 161.402344 204.5 161.800781 204.898438 C 162.992188 205.695312 164.585938 205.695312 165.78125 204.898438 C 166.179688 204.5 166.578125 204.101562 166.777344 203.703125 C 166.976562 203.304688 167.175781 202.90625 167.375 202.109375 L 170.363281 193.542969 C 170.5625 192.945312 170.761719 192.148438 170.761719 191.550781 C 170.761719 190.953125 170.5625 190.355469 169.964844 189.761719 C 168.769531 188.765625 167.375 188.765625 166.179688 189.5625 Z M 166.179688 189.5625 " fill-opacity="1" fill-rule="nonzero"/><path fill="#57b1bc" d="M 195.464844 189.761719 C 194.46875 188.765625 192.675781 188.765625 191.679688 189.761719 C 191.480469 189.960938 191.082031 190.355469 191.082031 190.753906 C 191.082031 190.953125 190.882812 191.550781 190.683594 192.148438 L 189.289062 196.53125 L 188.09375 192.546875 C 187.894531 191.949219 187.695312 191.351562 187.496094 190.953125 C 187.296875 190.554688 186.898438 189.960938 186.5 189.761719 C 185.304688 188.964844 183.710938 188.964844 182.515625 189.761719 C 182.117188 190.15625 181.71875 190.554688 181.519531 190.953125 C 181.320312 191.351562 181.320312 191.75 180.921875 192.746094 L 179.726562 196.53125 L 178.53125 192.148438 C 178.332031 191.550781 178.132812 190.753906 177.734375 190.160156 C 177.335938 189.363281 176.339844 188.964844 175.542969 189.164062 C 174.746094 189.164062 174.148438 189.363281 173.550781 189.960938 C 172.953125 190.355469 172.753906 191.152344 172.753906 191.75 C 172.753906 192.347656 172.953125 193.144531 173.152344 193.742188 L 176.140625 202.308594 L 176.539062 203.304688 C 176.738281 203.703125 176.9375 204.101562 177.136719 204.5 C 177.734375 205.496094 178.730469 205.894531 179.726562 205.894531 C 180.722656 205.894531 181.71875 205.496094 182.316406 204.699219 C 182.714844 203.902344 183.113281 203.105469 183.3125 202.308594 L 184.308594 198.921875 L 185.304688 202.308594 C 185.503906 202.90625 185.703125 203.503906 185.902344 203.902344 C 186.101562 204.5 186.5 204.898438 186.898438 205.296875 C 187.496094 205.695312 188.09375 206.09375 188.890625 205.894531 C 189.6875 205.894531 190.285156 205.695312 190.882812 205.296875 C 191.28125 204.898438 191.679688 204.5 191.878906 204.101562 C 192.078125 203.703125 192.277344 203.105469 192.476562 202.507812 L 195.464844 193.941406 C 195.664062 193.34375 195.863281 192.546875 195.863281 191.949219 C 196.261719 190.753906 196.0625 190.160156 195.464844 189.761719 Z M 195.464844 189.761719 " fill-opacity="1" fill-rule="nonzero"/><path fill="#57b1bc" d="M 196.859375 200.515625 C 196.261719 201.113281 195.863281 201.910156 196.0625 202.707031 C 196.0625 203.503906 196.460938 204.5 197.058594 205.097656 C 197.65625 205.695312 198.453125 205.894531 199.25 205.894531 C 200.042969 205.894531 200.839844 205.695312 201.4375 205.097656 C 202.035156 204.5 202.433594 203.703125 202.433594 202.707031 C 202.433594 201.910156 202.035156 201.113281 201.4375 200.515625 C 199.84375 199.320312 198.054688 199.320312 196.859375 200.515625 Z M 196.859375 200.515625 " fill-opacity="1" fill-rule="nonzero"/><g clip-path="url(#413601aa8a)"><path fill="#57b1bc" d="M 302.035156 96.535156 C 299.644531 96.136719 297.054688 95.9375 294.664062 96.136719 L 80.328125 96.136719 C 77.738281 95.9375 75.347656 96.136719 72.757812 96.734375 C 65.585938 98.726562 62.199219 105.300781 62.199219 112.273438 L 62.199219 259.28125 C 62.199219 266.050781 64.988281 272.226562 71.761719 274.617188 C 74.75 275.414062 77.9375 275.8125 81.125 275.414062 L 240.28125 275.414062 L 244.066406 307.683594 L 244.863281 315.054688 C 245.0625 317.246094 248.449219 318.839844 249.445312 316.25 L 261 291.152344 L 287.691406 293.742188 C 288.289062 294.140625 288.886719 293.941406 289.484375 293.742188 C 290.679688 293.34375 291.078125 292.148438 290.878906 290.953125 C 290.878906 290.355469 290.480469 289.757812 289.882812 289.160156 L 271.160156 275.214844 L 295.0625 275.214844 C 297.851562 275.414062 300.839844 275.015625 303.429688 274.21875 C 310.003906 271.628906 312.789062 265.453125 312.789062 258.882812 L 312.789062 112.074219 C 312.789062 104.902344 309.207031 98.328125 302.035156 96.535156 Z M 67.179688 110.480469 C 67.179688 105.5 70.964844 101.316406 75.945312 100.917969 C 81.523438 100.519531 87.101562 100.917969 92.476562 100.917969 L 280.917969 100.917969 C 286.695312 100.917969 292.472656 100.71875 298.449219 100.917969 C 303.628906 100.917969 307.8125 105.101562 308.011719 110.480469 L 308.011719 128.804688 L 94.867188 128.804688 C 85.707031 128.804688 76.34375 128.40625 67.179688 128.804688 L 67.179688 112.871094 C 67.179688 112.074219 67.179688 111.277344 67.179688 110.480469 Z M 257.414062 287.167969 L 248.847656 305.691406 L 243.867188 262.867188 L 243.667969 260.875 L 261.796875 274.417969 C 261.796875 274.417969 261.996094 274.617188 262.195312 274.617188 L 279.921875 287.765625 L 259.40625 285.773438 C 258.609375 285.972656 257.8125 286.371094 257.414062 287.167969 Z M 307.8125 260.476562 C 307.8125 264.65625 305.023438 268.441406 301.039062 269.835938 C 298.648438 270.234375 296.257812 270.433594 293.867188 270.234375 L 264.386719 270.234375 L 247.652344 257.886719 L 241.675781 253.503906 C 240.480469 252.90625 238.886719 253.304688 238.289062 254.5 C 238.089844 254.898438 237.890625 255.296875 237.890625 255.695312 L 239.484375 270.433594 L 82.519531 270.433594 C 80.527344 270.433594 78.535156 270.433594 76.742188 270.433594 C 71.5625 270.433594 67.378906 266.25 67.179688 260.875 C 67.179688 260.277344 67.179688 259.480469 67.179688 258.882812 L 67.179688 133.785156 L 280.121094 133.785156 C 289.285156 133.785156 298.648438 134.183594 307.8125 133.785156 L 307.8125 257.886719 C 307.8125 258.882812 307.8125 259.679688 307.8125 260.476562 Z M 307.8125 260.476562 " fill-opacity="1" fill-rule="nonzero"/></g><path fill="#57b1bc" d="M 93.671875 121.433594 C 95.066406 119.839844 95.664062 118.046875 95.664062 116.054688 C 95.664062 112.472656 93.472656 109.285156 90.085938 108.089844 C 86.902344 106.894531 83.117188 107.890625 80.925781 110.480469 C 77.9375 114.066406 78.335938 119.242188 81.722656 122.429688 C 85.308594 125.417969 90.484375 125.019531 93.671875 121.433594 Z M 90.683594 115.460938 C 90.683594 115.660156 90.683594 115.660156 90.683594 115.660156 C 90.683594 115.660156 90.683594 115.660156 90.683594 115.460938 Z M 83.714844 115.660156 C 83.714844 115.460938 83.714844 115.460938 83.714844 115.261719 C 83.714844 115.0625 83.914062 114.664062 83.914062 114.464844 C 83.914062 114.265625 84.113281 114.265625 84.113281 114.066406 C 84.113281 113.867188 84.3125 113.867188 84.3125 113.667969 C 84.511719 113.46875 84.710938 113.269531 84.910156 113.070312 L 85.109375 113.070312 C 84.910156 113.269531 85.109375 113.070312 85.308594 113.070312 C 85.507812 112.871094 85.90625 112.871094 86.105469 112.671875 C 86.105469 112.671875 85.507812 112.871094 85.90625 112.671875 L 86.304688 112.472656 L 86.503906 112.472656 C 86.503906 112.472656 86.503906 112.472656 86.703125 112.472656 C 86.703125 112.472656 86.902344 112.472656 86.902344 112.472656 L 87.699219 112.472656 L 88.691406 112.671875 C 89.089844 112.871094 89.089844 112.871094 89.089844 112.871094 L 89.886719 113.667969 L 90.085938 114.066406 C 90.085938 114.265625 90.285156 114.265625 90.285156 114.464844 C 90.285156 114.863281 90.484375 114.863281 90.484375 115.0625 C 90.484375 115.261719 90.285156 115.460938 90.285156 115.660156 C 90.285156 115.859375 90.285156 115.859375 90.285156 116.054688 C 90.285156 116.054688 90.085938 116.652344 90.085938 116.851562 C 90.085938 116.851562 90.085938 117.050781 90.085938 117.050781 C 90.085938 117.050781 90.085938 117.050781 89.886719 117.25 C 89.6875 117.449219 89.488281 117.847656 89.488281 118.046875 C 89.488281 118.046875 89.289062 118.246094 89.289062 118.246094 C 89.289062 118.246094 89.089844 118.445312 89.089844 118.445312 C 88.890625 118.445312 88.691406 118.84375 88.492188 118.84375 L 88.296875 119.042969 L 87.5 119.242188 C 87.5 119.242188 87.300781 119.242188 87.300781 119.242188 C 87.300781 119.242188 87.101562 119.242188 87.101562 119.242188 C 86.902344 119.242188 86.703125 119.242188 86.304688 119.242188 L 85.90625 119.242188 L 85.507812 119.042969 C 85.109375 118.84375 85.707031 119.042969 85.707031 119.042969 C 85.507812 118.84375 85.308594 118.84375 85.109375 118.644531 L 84.710938 118.445312 C 84.3125 118.046875 84.3125 118.046875 84.113281 117.847656 L 83.914062 117.449219 L 83.914062 117.050781 C 83.714844 116.851562 83.914062 116.851562 83.914062 117.25 C 83.914062 117.050781 83.714844 116.652344 83.714844 116.453125 L 83.714844 116.054688 C 83.714844 116.054688 83.714844 115.859375 83.714844 115.660156 Z M 83.714844 115.660156 " fill-opacity="1" fill-rule="nonzero"/><path fill="#57b1bc" d="M 83.714844 115.660156 C 83.914062 115.0625 83.714844 115.460938 83.714844 115.660156 Z M 83.714844 115.660156 " fill-opacity="1" fill-rule="nonzero"/><path fill="#57b1bc" d="M 87.300781 119.441406 L 87.5 119.441406 C 87.5 119.242188 87.300781 119.242188 87.300781 119.441406 Z M 87.300781 119.441406 " fill-opacity="1" fill-rule="nonzero"/><path fill="#57b1bc" d="M 103.832031 115.460938 C 104.03125 114.863281 103.832031 115.261719 103.832031 115.460938 Z M 103.832031 115.460938 " fill-opacity="1" fill-rule="nonzero"/><path fill="#57b1bc" d="M 113.792969 121.433594 C 115.1875 119.839844 115.785156 118.046875 115.785156 116.054688 C 115.785156 112.472656 113.394531 109.285156 110.207031 108.089844 C 107.019531 106.894531 103.234375 107.890625 101.042969 110.480469 C 98.054688 114.066406 98.453125 119.242188 101.839844 122.429688 C 105.425781 125.417969 110.804688 125.019531 113.792969 121.433594 Z M 110.804688 115.460938 C 110.804688 115.660156 110.804688 115.660156 110.804688 115.660156 C 110.804688 115.460938 110.804688 115.460938 110.804688 115.460938 Z M 103.832031 115.460938 C 103.832031 115.261719 103.832031 115.261719 103.832031 115.0625 C 103.832031 114.863281 104.03125 114.464844 104.03125 114.265625 L 104.429688 113.46875 C 104.628906 113.070312 104.429688 113.46875 104.429688 113.46875 C 104.628906 113.269531 104.828125 113.070312 105.027344 112.871094 C 105.027344 112.871094 105.226562 112.871094 105.226562 112.871094 C 105.425781 112.671875 105.824219 112.671875 106.023438 112.472656 C 106.023438 112.472656 105.425781 112.671875 105.824219 112.472656 L 106.222656 112.273438 L 106.421875 112.273438 C 106.421875 112.273438 106.421875 112.273438 106.621094 112.273438 C 106.621094 112.273438 106.820312 112.273438 106.820312 112.273438 L 107.816406 112.273438 L 108.8125 112.472656 C 109.210938 112.671875 109.210938 112.671875 109.210938 112.671875 L 109.410156 112.871094 L 109.609375 112.871094 L 110.207031 113.46875 L 110.605469 114.265625 C 110.804688 114.664062 110.804688 114.863281 110.804688 115.0625 C 110.804688 115.261719 110.605469 115.460938 110.605469 115.660156 C 110.605469 115.859375 110.605469 115.859375 110.605469 116.054688 C 110.605469 116.253906 110.40625 116.652344 110.40625 116.851562 C 110.40625 116.851562 110.40625 117.050781 110.40625 117.050781 C 110.40625 117.050781 110.40625 117.050781 110.207031 117.25 C 110.007812 117.648438 109.808594 117.847656 109.808594 118.046875 C 109.808594 118.046875 109.609375 118.246094 109.609375 118.246094 L 109.410156 118.445312 C 109.210938 118.445312 108.8125 118.84375 108.8125 118.84375 L 108.613281 118.84375 L 107.816406 119.242188 C 107.816406 119.242188 107.617188 119.242188 107.617188 119.242188 C 107.617188 119.242188 107.417969 119.242188 107.417969 119.242188 C 107.21875 119.242188 106.820312 119.242188 106.621094 119.242188 L 106.222656 119.042969 L 105.824219 119.042969 C 105.425781 118.84375 106.023438 119.042969 106.023438 119.042969 C 105.824219 118.84375 105.625 118.84375 105.226562 118.644531 C 105.226562 118.644531 105.027344 118.445312 104.828125 118.445312 C 104.828125 118.445312 104.230469 117.847656 104.230469 117.847656 L 103.832031 117.449219 C 103.832031 117.449219 103.632812 116.851562 103.632812 116.652344 C 103.632812 116.453125 103.632812 116.453125 103.632812 116.253906 C 103.832031 116.054688 103.832031 115.660156 103.832031 115.460938 Z M 103.832031 115.460938 " fill-opacity="1" fill-rule="nonzero"/><path fill="#57b1bc" d="M 134.109375 121.433594 C 135.503906 119.839844 136.101562 118.046875 136.101562 116.054688 C 136.101562 112.472656 133.910156 109.285156 130.523438 108.089844 C 127.335938 106.894531 123.554688 107.890625 121.363281 110.480469 C 118.375 114.066406 118.773438 119.242188 122.160156 122.429688 C 125.742188 125.417969 130.921875 125.019531 134.109375 121.433594 Z M 131.121094 115.460938 Z M 124.152344 115.460938 L 124.152344 115.0625 C 124.152344 114.863281 124.351562 114.464844 124.351562 114.265625 L 124.550781 113.867188 C 124.550781 113.667969 124.75 113.667969 124.75 113.46875 C 124.949219 113.269531 125.148438 113.070312 125.347656 112.871094 L 125.542969 112.671875 C 125.347656 112.871094 125.542969 112.671875 125.742188 112.671875 C 125.941406 112.472656 126.339844 112.472656 126.539062 112.273438 C 126.539062 112.273438 125.941406 112.472656 126.339844 112.273438 L 126.738281 112.074219 L 126.9375 112.074219 C 126.9375 112.074219 126.9375 112.074219 127.136719 112.074219 C 127.136719 112.074219 127.335938 112.074219 127.335938 112.074219 L 128.132812 112.074219 L 129.128906 112.273438 C 129.328125 112.273438 129.527344 112.472656 129.527344 112.472656 L 129.726562 113.070312 L 130.324219 113.667969 L 130.722656 114.464844 C 130.921875 114.863281 130.921875 115.0625 130.921875 115.261719 C 130.921875 115.460938 130.722656 115.660156 130.722656 115.859375 C 130.722656 116.054688 130.722656 116.054688 130.722656 116.253906 C 130.722656 116.453125 130.523438 116.851562 130.523438 117.050781 C 130.523438 117.050781 130.523438 117.25 130.523438 117.25 L 130.125 118.046875 C 130.125 118.046875 129.925781 118.246094 129.925781 118.246094 C 129.925781 118.246094 129.726562 118.445312 129.726562 118.445312 C 129.527344 118.445312 129.328125 118.84375 129.128906 118.84375 L 128.730469 119.042969 L 127.933594 119.242188 C 127.933594 119.242188 127.734375 119.242188 127.734375 119.242188 C 127.734375 119.242188 127.734375 119.242188 127.535156 119.242188 C 127.335938 119.242188 127.136719 119.242188 126.738281 119.242188 L 126.339844 119.042969 L 126.140625 119.042969 C 125.742188 118.84375 126.339844 119.042969 126.339844 119.042969 C 126.140625 118.84375 125.941406 118.84375 125.742188 118.644531 L 125.347656 118.445312 C 124.949219 118.046875 124.949219 118.046875 124.75 117.847656 L 124.550781 117.449219 L 124.351562 117.25 L 124.351562 117.050781 C 124.351562 116.851562 124.351562 116.851562 124.351562 117.050781 C 124.351562 116.851562 124.152344 116.652344 124.152344 116.453125 C 124.152344 116.253906 124.152344 116.253906 124.152344 116.054688 C 124.152344 116.054688 124.152344 115.660156 124.152344 115.460938 Z M 124.75 113.667969 C 124.75 113.46875 124.75 113.46875 124.75 113.667969 Z M 124.75 113.667969 " fill-opacity="1" fill-rule="nonzero"/><path fill="#57b1bc" d="M 127.734375 119.441406 C 127.933594 119.441406 127.933594 119.441406 127.734375 119.441406 L 127.933594 119.441406 C 127.933594 119.242188 127.734375 119.242188 127.734375 119.441406 Z M 127.734375 119.441406 " fill-opacity="1" fill-rule="nonzero"/></svg>